<svg xmlns="http://www.w3.org/2000/svg" width="205.754" height="60.072" viewBox="0 0 205.754 60.072"><defs><style> .cls-1 { fill: #6196d4; } .cls-2 { fill: #9e9e9e; } .cls-3 { fill: #afd753; } </style></defs><g id="Logo_Econfaire" data-name="Logo Econfaire" transform="translate(-281 -506.865)"><g id="Layer_1" data-name="Layer 1" transform="translate(281 506.865)"><g id="Group_4" data-name="Group 4" transform="translate(0 0)"><path id="Path_7150" data-name="Path 7150" class="cls-1" d="M-22.093-14.139a4.648,4.648,0,0,0-.2-1.112,2.785,2.785,0,0,0-.511-.962,2.723,2.723,0,0,0-.871-.691,2.839,2.839,0,0,0-1.307-.271,3.007,3.007,0,0,0-1.292.255,2.671,2.671,0,0,0-.9.676,3.031,3.031,0,0,0-.556.977,6.406,6.406,0,0,0-.285,1.127ZM-32.61-12.427a9.656,9.656,0,0,1,.646-3.681,7.885,7.885,0,0,1,1.7-2.629,7.061,7.061,0,0,1,2.419-1.592,7.572,7.572,0,0,1,2.809-.541,6.983,6.983,0,0,1,5.318,2.058q1.953,2.058,1.953,6.055,0,.391-.03.856t-.06.827H-28.013a2.973,2.973,0,0,0,1.292,2.193,5.193,5.193,0,0,0,3.065.811A12.936,12.936,0,0,0-21.237-8.3,9.111,9.111,0,0,0-19.3-8.851l.6,3.636a6.179,6.179,0,0,1-.961.361A12.551,12.551,0,0,1-21-4.539q-.736.135-1.577.225a15.736,15.736,0,0,1-1.683.09,9.956,9.956,0,0,1-3.711-.631,7.227,7.227,0,0,1-2.614-1.728,6.856,6.856,0,0,1-1.533-2.6,10.3,10.3,0,0,1-.5-3.245" transform="translate(100.807 39.076)"></path><path id="Path_7151" data-name="Path 7151" class="cls-1" d="M-21.841-45.639q-5.078,0-7.737-2.824t-2.659-8.023a12.339,12.339,0,0,1,.811-4.612A9.928,9.928,0,0,1-29.2-64.523a9.3,9.3,0,0,1,3.365-2.118,12.144,12.144,0,0,1,4.237-.721,13.6,13.6,0,0,1,2.4.2,15.665,15.665,0,0,1,1.893.451,9.375,9.375,0,0,1,1.352.526q.541.27.781.421l-1.352,3.786a11.371,11.371,0,0,0-2.238-.871,10.676,10.676,0,0,0-2.9-.361,6.4,6.4,0,0,0-2.118.361A4.79,4.79,0,0,0-25.612-61.7a5.754,5.754,0,0,0-1.277,2.058,8.635,8.635,0,0,0-.481,3.065,10.923,10.923,0,0,0,.316,2.689,5.7,5.7,0,0,0,1.021,2.148,4.9,4.9,0,0,0,1.848,1.427,6.577,6.577,0,0,0,2.764.526,12.628,12.628,0,0,0,1.833-.12,13.554,13.554,0,0,0,1.442-.285,7.547,7.547,0,0,0,1.112-.376q.48-.21.871-.391L-14.87-47.2a10.959,10.959,0,0,1-2.794,1.082,16.3,16.3,0,0,1-4.176.481" transform="translate(118.132 80.491)"></path><path id="Path_7152" data-name="Path 7152" class="cls-1" d="M-23.04-17.422a5.627,5.627,0,0,0-.827-3.26,2.7,2.7,0,0,0-2.358-1.187A2.739,2.739,0,0,0-28.6-20.682a5.548,5.548,0,0,0-.842,3.26,5.692,5.692,0,0,0,.842,3.29,2.718,2.718,0,0,0,2.374,1.217,2.681,2.681,0,0,0,2.358-1.217,5.773,5.773,0,0,0,.827-3.29m4.567,0a10.284,10.284,0,0,1-.541,3.41,7.405,7.405,0,0,1-1.563,2.644,7.028,7.028,0,0,1-2.449,1.7,8.174,8.174,0,0,1-3.2.6,8.092,8.092,0,0,1-3.17-.6,7.022,7.022,0,0,1-2.449-1.7,7.763,7.763,0,0,1-1.592-2.644,9.785,9.785,0,0,1-.571-3.41,9.44,9.44,0,0,1,.586-3.4A7.7,7.7,0,0,1-31.8-23.431a7.292,7.292,0,0,1,2.464-1.683,7.932,7.932,0,0,1,3.11-.6,8.011,8.011,0,0,1,3.14.6,7.14,7.14,0,0,1,2.449,1.683,7.644,7.644,0,0,1,1.592,2.614,9.655,9.655,0,0,1,.571,3.4" transform="translate(138.863 43.921)"></path><path id="Path_7153" data-name="Path 7153" class="cls-1" d="M0-1.894A25.026,25.026,0,0,1,2.945-2.51,24.241,24.241,0,0,1,6.731-2.8a9.228,9.228,0,0,1,3.35.526A5.039,5.039,0,0,1,12.2-.782,5.8,5.8,0,0,1,13.311,1.5a12.157,12.157,0,0,1,.331,2.945v8.924H9.164V4.987a6.039,6.039,0,0,0-.571-3.065,2.329,2.329,0,0,0-2.133-.9q-.481,0-1.021.045t-.962.105v12.2H0Z" transform="translate(123.845 21.061)"></path><path id="Path_7154" data-name="Path 7154" class="cls-1" d="M-14.392,0a9.823,9.823,0,0,1,2.314.255,11.239,11.239,0,0,1,1.622.5l-.871,3.576a5.875,5.875,0,0,0-1.307-.406,7,7,0,0,0-1.307-.135,3.648,3.648,0,0,0-1.367.225,2.113,2.113,0,0,0-.872.616,2.386,2.386,0,0,0-.451.931,4.831,4.831,0,0,0-.135,1.172v.781h5.529v3.726h-5.529V23.317h-4.477V6.671A6.739,6.739,0,0,1-19.515,1.8,6.775,6.775,0,0,1-14.392,0" transform="translate(162.786 11.114)"></path><path id="Path_7155" data-name="Path 7155" class="cls-1" d="M-14.9-27.521q.661,0,1.262-.03a8.641,8.641,0,0,0,.961-.09v-3.4q-.27-.06-.811-.12a9.132,9.132,0,0,0-.991-.06,8.935,8.935,0,0,0-1.187.075,3.111,3.111,0,0,0-.977.285,1.675,1.675,0,0,0-.661.571,1.589,1.589,0,0,0-.24.9,1.534,1.534,0,0,0,.706,1.457,3.9,3.9,0,0,0,1.938.406m-.361-13.1a10.376,10.376,0,0,1,3.305.451A5.14,5.14,0,0,1-9.834-38.88a4.761,4.761,0,0,1,1.127,2.043,10.086,10.086,0,0,1,.33,2.674v9.314q-.962.211-2.674.5a25.739,25.739,0,0,1-4.147.285,13.146,13.146,0,0,1-2.779-.271,6.029,6.029,0,0,1-2.148-.886,4.051,4.051,0,0,1-1.382-1.608,5.543,5.543,0,0,1-.481-2.434,4.611,4.611,0,0,1,.556-2.344,4.281,4.281,0,0,1,1.487-1.533,6.729,6.729,0,0,1,2.134-.826,11.984,11.984,0,0,1,2.494-.255,14.277,14.277,0,0,1,1.548.075,6.939,6.939,0,0,1,1.1.2v-.421a2.478,2.478,0,0,0-.691-1.833,3.348,3.348,0,0,0-2.4-.691,15.368,15.368,0,0,0-2.253.165,9.728,9.728,0,0,0-1.923.466l-.571-3.606c.26-.08.586-.165.977-.255s.816-.17,1.277-.241.947-.13,1.457-.18,1.026-.075,1.547-.075" transform="translate(174.919 58.828)"></path><path id="Path_7156" data-name="Path 7156" class="cls-1" d="M813.521-634.724h-4.477v-15.805h4.477Zm.421-20.372a2.457,2.457,0,0,1-.8,1.938,2.739,2.739,0,0,1-1.878.706,2.739,2.739,0,0,1-1.878-.706,2.456,2.456,0,0,1-.8-1.938,2.458,2.458,0,0,1,.8-1.938,2.74,2.74,0,0,1,1.878-.706,2.74,2.74,0,0,1,1.878.706,2.459,2.459,0,0,1,.8,1.938" transform="translate(-638.445 669.155)"></path><path id="Path_7157" data-name="Path 7157" class="cls-1" d="M-20.01-9.026q-.6-.15-1.412-.315a8.743,8.743,0,0,0-1.743-.165,8.161,8.161,0,0,0-1.007.075,5.962,5.962,0,0,0-.886.165V2.813h-4.477V-12.151a27.006,27.006,0,0,1,2.839-.8,16.371,16.371,0,0,1,3.651-.375c.24,0,.53.015.871.045s.68.071,1.021.12.681.11,1.022.18a4.86,4.86,0,0,1,.871.255Z" transform="translate(208.817 31.619)"></path><path id="Path_7158" data-name="Path 7158" class="cls-1" d="M-22.093-14.139a4.647,4.647,0,0,0-.2-1.112,2.8,2.8,0,0,0-.511-.962,2.719,2.719,0,0,0-.871-.691,2.839,2.839,0,0,0-1.307-.271,3.007,3.007,0,0,0-1.292.255,2.671,2.671,0,0,0-.9.676,3.031,3.031,0,0,0-.556.977,6.406,6.406,0,0,0-.285,1.127ZM-32.61-12.427a9.663,9.663,0,0,1,.646-3.681,7.885,7.885,0,0,1,1.7-2.629,7.062,7.062,0,0,1,2.419-1.592,7.574,7.574,0,0,1,2.81-.541,6.983,6.983,0,0,1,5.318,2.058q1.953,2.058,1.953,6.055,0,.391-.03.856t-.06.827H-28.013a2.973,2.973,0,0,0,1.292,2.193,5.192,5.192,0,0,0,3.065.811A12.936,12.936,0,0,0-21.237-8.3,9.105,9.105,0,0,0-19.3-8.851l.6,3.636a6.172,6.172,0,0,1-.962.361A12.538,12.538,0,0,1-21-4.539q-.737.135-1.578.225a15.734,15.734,0,0,1-1.682.09,9.958,9.958,0,0,1-3.711-.631,7.228,7.228,0,0,1-2.614-1.728,6.856,6.856,0,0,1-1.533-2.6,10.3,10.3,0,0,1-.5-3.245" transform="translate(223.521 39.076)"></path><path id="Path_7159" data-name="Path 7159" class="cls-2" d="M547.343-569.317h1.992v8.848h-1.992Z" transform="translate(-461.448 609.248)"></path><path id="Path_7160" data-name="Path 7160" class="cls-2" d="M-5.472,0q.23.421.531,1.041t.627,1.34q.327.722.647,1.475l.6,1.417.6-1.417q.32-.753.646-1.475t.628-1.34Q-.888.422-.658,0H1.155q.127.881.236,1.973t.192,2.273q.083,1.181.153,2.368t.121,2.234H-.084q-.039-1.289-.1-2.809T-.377,2.975q-.231.536-.512,1.187t-.557,1.3q-.275.651-.531,1.245t-.435,1.015H-3.805q-.179-.421-.435-1.015t-.531-1.245q-.275-.651-.557-1.3t-.512-1.187q-.128,1.545-.192,3.064t-.1,2.809H-8.076q.051-1.047.121-2.234T-7.8,4.245q.083-1.181.192-2.273T-7.374,0Z" transform="translate(97.75 39.931)"></path><path id="Path_7161" data-name="Path 7161" class="cls-2" d="M-5.472,0q.23.421.531,1.041t.627,1.34q.327.722.647,1.475l.6,1.417.6-1.417q.32-.753.646-1.475t.628-1.34Q-.888.422-.658,0H1.155q.127.881.236,1.973t.192,2.273q.083,1.181.153,2.368t.121,2.234H-.084q-.039-1.289-.1-2.809T-.377,2.975q-.231.536-.512,1.187t-.557,1.3q-.275.651-.531,1.245t-.435,1.015H-3.805q-.179-.421-.435-1.015t-.531-1.245q-.275-.651-.557-1.3t-.512-1.187q-.128,1.545-.192,3.064t-.1,2.809h-1.94q.051-1.047.121-2.234T-7.8,4.245q.083-1.181.192-2.273T-7.374,0Z" transform="translate(109.203 39.931)"></path><path id="Path_7162" data-name="Path 7162" class="cls-2" d="M0-18.587v-8.848H5.975v1.672H1.992v1.736H5.529v1.634H1.992v2.132H6.269v1.672Z" transform="translate(112.834 67.366)"></path><path id="Path_7163" data-name="Path 7163" class="cls-2" d="M-5.686-3.567q-.217,0-.389.013l-.326.025v2.4h.562A3.391,3.391,0,0,0-4.231-1.41a1.015,1.015,0,0,0,.485-.957.974.974,0,0,0-.491-.926,3.04,3.04,0,0,0-1.449-.274m-.115-1.7a5.482,5.482,0,0,1,3.051.709,2.462,2.462,0,0,1,1.06,2.2A2.489,2.489,0,0,1-2.118-.841,2.813,2.813,0,0,1-3.35.071q.268.332.562.76t.581.894q.287.466.555.97t.5.989H-3.38q-.243-.434-.493-.881t-.512-.868q-.263-.421-.519-.8T-5.418.455H-6.4v3.23H-8.393v-8.72a11.32,11.32,0,0,1,1.347-.179q.7-.051,1.245-.051" transform="translate(128.964 45.094)"></path><path id="Path_7164" data-name="Path 7164" class="cls-2" d="M-6.224-15.824a2.862,2.862,0,0,0,.7-.07,1.276,1.276,0,0,0,.44-.192.64.64,0,0,0,.23-.287,1.025,1.025,0,0,0,.064-.371.856.856,0,0,0-.409-.721,5.834,5.834,0,0,0-1.4-.619q-.434-.153-.868-.351a3.189,3.189,0,0,1-.779-.5,2.376,2.376,0,0,1-.562-.728A2.278,2.278,0,0,1-9.032-20.7a2.581,2.581,0,0,1,.23-1.1,2.356,2.356,0,0,1,.651-.836,2.976,2.976,0,0,1,1.022-.53,4.591,4.591,0,0,1,1.353-.185,5.525,5.525,0,0,1,1.545.191,5.543,5.543,0,0,1,1.072.422l-.574,1.571a5.464,5.464,0,0,0-.824-.339,3.571,3.571,0,0,0-1.092-.147,2,2,0,0,0-1.028.2.667.667,0,0,0-.313.606.7.7,0,0,0,.115.409,1.117,1.117,0,0,0,.326.3,2.822,2.822,0,0,0,.485.243q.274.108.606.223.689.256,1.2.5a3.215,3.215,0,0,1,.849.581,2.109,2.109,0,0,1,.5.779,3.131,3.131,0,0,1,.166,1.085,2.3,2.3,0,0,1-.868,1.921,4.188,4.188,0,0,1-2.617.683,7.257,7.257,0,0,1-1.06-.07,6.907,6.907,0,0,1-.837-.173,4.771,4.771,0,0,1-.626-.217,4.663,4.663,0,0,1-.441-.217l.562-1.583a5.015,5.015,0,0,0,.977.39,5.074,5.074,0,0,0,1.424.172" transform="translate(137.724 63.084)"></path><path id="Path_7165" data-name="Path 7165" class="cls-2" d="M704.311-569.317H706.3v8.848h-1.992Z" transform="translate(-567.794 609.248)"></path><path id="Path_7166" data-name="Path 7166" class="cls-2" d="M-7.434-18.587Q-7.962-19.7-8.476-20.9t-.976-2.372q-.462-1.174-.85-2.247t-.67-1.915h2.2q.249.769.552,1.654t.62,1.766l.6,1.686q.289.806.553,1.393.25-.582.545-1.389t.611-1.686q.315-.88.619-1.766t.554-1.658H-2q-.3.847-.684,1.917t-.846,2.246Q-3.987-22.1-4.5-20.9t-1.037,2.31Z" transform="translate(150.63 67.366)"></path><path id="Path_7167" data-name="Path 7167" class="cls-2" d="M0-18.587v-8.848H5.975v1.672H1.992v1.736H5.528v1.634H1.992v2.132H6.269v1.672Z" transform="translate(149.77 67.366)"></path><path id="Path_7168" data-name="Path 7168" class="cls-2" d="M-4.184-15.4q.14.013.325.019t.441.006A2.936,2.936,0,0,0-1.2-16.123,2.884,2.884,0,0,0-.482-18.2a2.922,2.922,0,0,0-.689-2.107,2.919,2.919,0,0,0-2.183-.715q-.2,0-.421.006a4.029,4.029,0,0,0-.409.032ZM1.574-18.2a5.175,5.175,0,0,1-.357,2A3.718,3.718,0,0,1,.2-14.783a4.333,4.333,0,0,1-1.6.843,7.436,7.436,0,0,1-2.119.281q-.536,0-1.251-.045a10.221,10.221,0,0,1-1.4-.185v-8.618a11.705,11.705,0,0,1,1.436-.172q.746-.045,1.283-.045a7.748,7.748,0,0,1,2.062.255,4.221,4.221,0,0,1,1.59.8,3.581,3.581,0,0,1,1.021,1.4A5.326,5.326,0,0,1,1.574-18.2" transform="translate(166.747 62.553)"></path><path id="Path_7169" data-name="Path 7169" class="cls-2" d="M0-18.587v-8.848H5.975v1.672H1.992v1.736H5.528v1.634H1.992v2.132H6.268v1.672Z" transform="translate(169.98 67.366)"></path><path id="Path_7170" data-name="Path 7170" class="cls-2" d="M-6.223-15.824a2.861,2.861,0,0,0,.7-.07,1.278,1.278,0,0,0,.441-.192.639.639,0,0,0,.23-.287,1.025,1.025,0,0,0,.064-.371.856.856,0,0,0-.408-.721,5.838,5.838,0,0,0-1.4-.619q-.434-.153-.868-.351a3.184,3.184,0,0,1-.779-.5,2.372,2.372,0,0,1-.562-.728A2.274,2.274,0,0,1-9.032-20.7a2.571,2.571,0,0,1,.23-1.1,2.346,2.346,0,0,1,.651-.836,2.977,2.977,0,0,1,1.021-.53,4.588,4.588,0,0,1,1.353-.185,5.522,5.522,0,0,1,1.545.191,5.526,5.526,0,0,1,1.072.422l-.574,1.571a5.474,5.474,0,0,0-.823-.339,3.575,3.575,0,0,0-1.092-.147,2,2,0,0,0-1.027.2.668.668,0,0,0-.313.606.7.7,0,0,0,.115.409,1.121,1.121,0,0,0,.326.3,2.846,2.846,0,0,0,.485.243q.275.108.606.223.69.256,1.2.5a3.211,3.211,0,0,1,.849.581,2.114,2.114,0,0,1,.5.779,3.139,3.139,0,0,1,.166,1.085,2.3,2.3,0,0,1-.868,1.921,4.19,4.19,0,0,1-2.618.683,7.263,7.263,0,0,1-1.06-.07,6.9,6.9,0,0,1-.836-.173,4.777,4.777,0,0,1-.626-.217,4.614,4.614,0,0,1-.44-.217l.561-1.583a5.027,5.027,0,0,0,.977.39,5.071,5.071,0,0,0,1.424.172" transform="translate(186.353 63.084)"></path><path id="Path_7171" data-name="Path 7171" class="cls-2" d="M855.1-569.317H857.1v8.848H855.1Z" transform="translate(-669.956 609.248)"></path><path id="Path_7172" data-name="Path 7172" class="cls-2" d="M-9.87-3.648a2.426,2.426,0,0,0-2.011.772A3.286,3.286,0,0,0-12.5-.762,4.254,4.254,0,0,0-12.347.419a2.6,2.6,0,0,0,.46.913,2.072,2.072,0,0,0,.766.594,2.55,2.55,0,0,0,1.072.211q.332,0,.568-.013a2.677,2.677,0,0,0,.415-.051V-1h1.992V3.374a7.5,7.5,0,0,1-1.149.3,10.12,10.12,0,0,1-1.953.159,5.078,5.078,0,0,1-1.807-.306,3.774,3.774,0,0,1-1.385-.894,3.989,3.989,0,0,1-.888-1.443,5.661,5.661,0,0,1-.313-1.953,5.226,5.226,0,0,1,.344-1.966,4.24,4.24,0,0,1,.945-1.449,3.986,3.986,0,0,1,1.411-.9,4.856,4.856,0,0,1,1.73-.306,7.02,7.02,0,0,1,1.13.083,7.242,7.242,0,0,1,.868.192,4.087,4.087,0,0,1,.6.223c.157.076.27.136.338.179l-.575,1.6a5.224,5.224,0,0,0-.938-.377,3.994,3.994,0,0,0-1.156-.16" transform="translate(203.367 45.111)"></path><path id="Path_7173" data-name="Path 7173" class="cls-2" d="M-12.471-18.587q-.855-1.519-1.851-3a30.562,30.562,0,0,0-2.119-2.8v5.8h-1.966v-8.848h1.621q.421.421.932,1.034t1.041,1.309q.53.7,1.054,1.443t.983,1.436v-5.222H-10.8v8.848Z" transform="translate(216.553 67.366)"></path><path id="Path_7174" data-name="Path 7174" class="cls-3" d="M-10.07-1.728a2.808,2.808,0,0,1,0,3.971,2.808,2.808,0,0,1-3.971,0,2.808,2.808,0,0,1,0-3.971,2.808,2.808,0,0,1,3.971,0" transform="translate(14.863 29.778)"></path><path id="Path_7175" data-name="Path 7175" class="cls-3" d="M-10.07-1.728a2.808,2.808,0,0,1,0,3.971,2.808,2.808,0,0,1-3.971,0,2.808,2.808,0,0,1,0-3.971,2.808,2.808,0,0,1,3.971,0" transform="translate(21.67 36.585)"></path><path id="Path_7176" data-name="Path 7176" class="cls-3" d="M-10.07-1.728a2.808,2.808,0,0,1,0,3.971,2.808,2.808,0,0,1-3.971,0,2.808,2.808,0,0,1,0-3.971,2.808,2.808,0,0,1,3.971,0" transform="translate(28.477 43.392)"></path><path id="Path_7177" data-name="Path 7177" class="cls-3" d="M-10.07-1.728a2.808,2.808,0,0,1,0,3.971,2.808,2.808,0,0,1-3.971,0,2.808,2.808,0,0,1,0-3.971,2.808,2.808,0,0,1,3.971,0" transform="translate(35.284 50.199)"></path><path id="Path_7178" data-name="Path 7178" class="cls-3" d="M-10.07-1.728a2.808,2.808,0,0,1,0,3.971,2.808,2.808,0,0,1-3.971,0,2.808,2.808,0,0,1,0-3.971,2.808,2.808,0,0,1,3.971,0" transform="translate(42.091 57.007)"></path><path id="Path_7179" data-name="Path 7179" class="cls-3" d="M-10.07-1.728a2.808,2.808,0,0,1,0,3.971,2.808,2.808,0,0,1-3.971,0,2.808,2.808,0,0,1,0-3.971,2.808,2.808,0,0,1,3.971,0" transform="translate(21.67 22.971)"></path><path id="Path_7180" data-name="Path 7180" class="cls-3" d="M-5.9-2.949a1.4,1.4,0,0,1-.411.993,1.4,1.4,0,0,1-.993.411,1.4,1.4,0,0,1-.993-.411,1.4,1.4,0,0,1,0-1.985A1.4,1.4,0,0,1-7.3-4.353a1.4,1.4,0,0,1,.993.411,1.4,1.4,0,0,1,.411.993" transform="translate(23.724 32.985)"></path><path id="Path_7181" data-name="Path 7181" class="cls-3" d="M-10.07-1.728a2.808,2.808,0,0,1,0,3.971,2.808,2.808,0,0,1-3.971,0,2.808,2.808,0,0,1,0-3.971,2.808,2.808,0,0,1,3.971,0" transform="translate(35.284 36.585)"></path><path id="Path_7182" data-name="Path 7182" class="cls-3" d="M-5.034-5.035a1.4,1.4,0,0,1-.993.411,1.4,1.4,0,0,1-.993-.411,1.406,1.406,0,0,1,0-1.986,1.4,1.4,0,0,1,.993-.411,1.4,1.4,0,0,1,.993.411,1.405,1.405,0,0,1,0,1.986" transform="translate(36.063 49.677)"></path><path id="Path_7183" data-name="Path 7183" class="cls-3" d="M-10.07-1.728a2.808,2.808,0,0,1,0,3.971,2.808,2.808,0,0,1-3.971,0,2.808,2.808,0,0,1,0-3.971,2.808,2.808,0,0,1,3.971,0" transform="translate(48.898 50.199)"></path><path id="Path_7184" data-name="Path 7184" class="cls-3" d="M-10.07-1.728a2.808,2.808,0,0,1,0,3.971,2.808,2.808,0,0,1-3.971,0,2.808,2.808,0,0,1,0-3.971,2.808,2.808,0,0,1,3.971,0" transform="translate(28.477 16.164)"></path><path id="Path_7185" data-name="Path 7185" class="cls-3" d="M-5.9-2.949a1.4,1.4,0,0,1-.411.993,1.4,1.4,0,0,1-.993.411,1.4,1.4,0,0,1-.993-.411,1.4,1.4,0,0,1-.411-.993,1.4,1.4,0,0,1,.411-.993A1.4,1.4,0,0,1-7.3-4.353a1.4,1.4,0,0,1,.993.411,1.4,1.4,0,0,1,.411.993" transform="translate(30.532 26.178)"></path><path id="Path_7186" data-name="Path 7186" class="cls-3" d="M-10.07-1.728a2.808,2.808,0,0,1,0,3.971,2.808,2.808,0,0,1-3.971,0,2.808,2.808,0,0,1,0-3.971,2.808,2.808,0,0,1,3.971,0" transform="translate(42.091 29.778)"></path><path id="Path_7187" data-name="Path 7187" class="cls-3" d="M-5.9-2.949a1.4,1.4,0,0,1-.411.993,1.4,1.4,0,0,1-.993.411,1.4,1.4,0,0,1-.993-.411,1.4,1.4,0,0,1,0-1.985A1.4,1.4,0,0,1-7.3-4.353a1.4,1.4,0,0,1,.993.411,1.4,1.4,0,0,1,.411.993" transform="translate(44.144 39.792)"></path><path id="Path_7188" data-name="Path 7188" class="cls-3" d="M-10.07-1.728a2.808,2.808,0,0,1,0,3.971,2.808,2.808,0,0,1-3.971,0,2.808,2.808,0,0,1,0-3.971,2.808,2.808,0,0,1,3.971,0" transform="translate(55.705 43.392)"></path><path id="Path_7189" data-name="Path 7189" class="cls-3" d="M-10.07-1.728a2.808,2.808,0,0,1,0,3.971,2.808,2.808,0,0,1-3.971,0,2.808,2.808,0,0,1,0-3.971,2.808,2.808,0,0,1,3.971,0" transform="translate(35.284 9.357)"></path><path id="Path_7190" data-name="Path 7190" class="cls-3" d="M-5.034-5.035a1.4,1.4,0,0,1-.993.411,1.4,1.4,0,0,1-.993-.411,1.406,1.406,0,0,1,0-1.986,1.4,1.4,0,0,1,.993-.411,1.4,1.4,0,0,1,.993.411,1.405,1.405,0,0,1,0,1.986" transform="translate(36.063 22.45)"></path><path id="Path_7191" data-name="Path 7191" class="cls-3" d="M-5.9-2.949a1.4,1.4,0,0,1-.411.993,1.4,1.4,0,0,1-.993.411,1.4,1.4,0,0,1-.993-.411,1.4,1.4,0,0,1-.411-.993,1.4,1.4,0,0,1,.411-.993A1.4,1.4,0,0,1-7.3-4.353a1.4,1.4,0,0,1,.993.411,1.4,1.4,0,0,1,.411.993" transform="translate(44.145 26.178)"></path><path id="Path_7192" data-name="Path 7192" class="cls-3" d="M-5.035-5.035a1.4,1.4,0,0,1-.993.411,1.4,1.4,0,0,1-.993-.411,1.4,1.4,0,0,1-.411-.993A1.4,1.4,0,0,1-7.02-7.02a1.4,1.4,0,0,1,.993-.411,1.4,1.4,0,0,1,.993.411,1.405,1.405,0,0,1,0,1.986" transform="translate(49.677 36.063)"></path><path id="Path_7193" data-name="Path 7193" class="cls-3" d="M-10.07-1.728a2.808,2.808,0,0,1,0,3.971,2.808,2.808,0,0,1-3.971,0,2.808,2.808,0,0,1,0-3.971,2.808,2.808,0,0,1,3.971,0" transform="translate(62.512 36.585)"></path><path id="Path_7194" data-name="Path 7194" class="cls-3" d="M-10.07-1.728a2.808,2.808,0,0,1,0,3.971,2.808,2.808,0,0,1-3.971,0,2.808,2.808,0,0,1,0-3.971,2.808,2.808,0,0,1,3.971,0" transform="translate(42.091 2.55)"></path><path id="Path_7195" data-name="Path 7195" class="cls-3" d="M-5.9-2.949a1.4,1.4,0,0,1-.411.993,1.4,1.4,0,0,1-.993.411,1.4,1.4,0,0,1-.993-.411,1.4,1.4,0,0,1,0-1.985A1.387,1.387,0,0,1-7.3-4.353a1.387,1.387,0,0,1,.993.411,1.4,1.4,0,0,1,.411.993" transform="translate(44.144 12.565)"></path><path id="Path_7196" data-name="Path 7196" class="cls-3" d="M-5.035-5.035a1.4,1.4,0,0,1-.993.411,1.4,1.4,0,0,1-.993-.411,1.4,1.4,0,0,1-.411-.993A1.4,1.4,0,0,1-7.02-7.02a1.4,1.4,0,0,1,.993-.411,1.4,1.4,0,0,1,.993.411,1.405,1.405,0,0,1,0,1.986" transform="translate(49.677 22.45)"></path><path id="Path_7197" data-name="Path 7197" class="cls-3" d="M-5.035-5.035a1.4,1.4,0,0,1-.993.411,1.4,1.4,0,0,1-.993-.411,1.4,1.4,0,0,1-.411-.993A1.4,1.4,0,0,1-7.02-7.02a1.4,1.4,0,0,1,.993-.411,1.4,1.4,0,0,1,.993.411,1.405,1.405,0,0,1,0,1.986" transform="translate(56.484 29.256)"></path><path id="Path_7198" data-name="Path 7198" class="cls-3" d="M-10.07-1.728a2.808,2.808,0,0,1,0,3.971,2.808,2.808,0,0,1-3.971,0,2.808,2.808,0,0,1,0-3.971,2.808,2.808,0,0,1,3.971,0" transform="translate(69.32 29.778)"></path></g></g></g></svg>